<svg width="64" height="64" viewBox="0 0 64 64" fill="none" xmlns="http://www.w3.org/2000/svg">
<path d="M32 0C14.3269 0 0 14.3269 0 32C0 49.6731 14.3269 64 32 64C49.6731 64 64 49.6731 64 32C64 14.3269 49.6731 0 32 0ZM32 58.4615C17.4115 58.4615 5.53846 46.5885 5.53846 32C5.53846 17.4115 17.4115 5.53846 32 5.53846C46.5885 5.53846 58.4615 17.4115 58.4615 32C58.4615 46.5885 46.5885 58.4615 32 58.4615Z" fill="url(#paint0_linear_148_2)"/>
<path d="M39.6308 14.8923L24.3692 49.1077L29.2308 24.8923L44.4923 14.8923L39.6308 39.1077L24.3692 49.1077" stroke="url(#paint1_linear_148_2)" stroke-width="3"/>
<defs>
<linearGradient id="paint0_linear_148_2" x1="32" y1="0" x2="32" y2="64" gradientUnits="userSpaceOnUse">
<stop stop-color="#A855F7"/>
<stop offset="1" stop-color="#6366F1"/>
</linearGradient>
<linearGradient id="paint1_linear_148_2" x1="34.4308" y1="14.8923" x2="34.4308" y2="49.1077" gradientUnits="userSpaceOnUse">
<stop stop-color="#F472B6"/>
<stop offset="1" stop-color="#A855F7"/>
</linearGradient>
</defs>
</svg>